PathFileType	4	(X/Y/Z)	Kaydara	
DataRate	CameraRate	NumFrames	NumMarkers	Units	OrigDataRate	OrigDataStartFrame	OrigNumFrames	
120.00	120.00	4	72	mm	120.00	1	268	
Frame#	Time	Hips			RightUpLeg			RightLeg			RightFoot			RightFoot_End			LeftUpLeg			LeftLeg			LeftFoot			LeftFoot_End			Spine			Spine1			Spine2			Spine3			Neck			Head			Head_End			RightShoulder			RightArm			RightForeArm			RightHand			RightHandThumb1			RightHandThumb2			RightHandThumb3			RightHandThumb3_End			RightInHandIndex			RightHandIndex1			RightHandIndex2			RightHandIndex3			RightHandIndex3_End			RightInHandMiddle			RightHandMiddle1			RightHandMiddle2			RightHandMiddle3			RightHandMiddle3_End			RightInHandRing			RightHandRing1			RightHandRing2			RightHandRing3			RightHandRing3_End			RightInHandPinky			RightHandPinky1			RightHandPinky2			RightHandPinky3			RightHandPinky3_End			LeftShoulder			LeftArm			LeftForeArm			LeftHand			LeftHandThumb1			LeftHandThumb2			LeftHandThumb3			LeftHandThumb3_End			LeftInHandIndex			LeftHandIndex1			LeftHandIndex2			LeftHandIndex3			LeftHandIndex3_End			LeftInHandMiddle			LeftHandMiddle1			LeftHandMiddle2			LeftHandMiddle3			LeftHandMiddle3_End			LeftInHandRing			LeftHandRing1			LeftHandRing2			LeftHandRing3			LeftHandRing3_End			LeftInHandPinky			LeftHandPinky1			LeftHandPinky2			LeftHandPinky3			LeftHandPinky3_End			
		X1	Y1	Z1	X2	Y2	Z2	X3	Y3	Z3	X4	Y4	Z4	X5	Y5	Z5	X6	Y6	Z6	X7	Y7	Z7	X8	Y8	Z8	X9	Y9	Z9	X10	Y10	Z10	X11	Y11	Z11	X12	Y12	Z12	X13	Y13	Z13	X14	Y14	Z14	X15	Y15	Z15	X16	Y16	Z16	X17	Y17	Z17	X18	Y18	Z18	X19	Y19	Z19	X20	Y20	Z20	X21	Y21	Z21	X22	Y22	Z22	X23	Y23	Z23	X24	Y24	Z24	X25	Y25	Z25	X26	Y26	Z26	X27	Y27	Z27	X28	Y28	Z28	X29	Y29	Z29	X30	Y30	Z30	X31	Y31	Z31	X32	Y32	Z32	X33	Y33	Z33	X34	Y34	Z34	X35	Y35	Z35	X36	Y36	Z36	X37	Y37	Z37	X38	Y38	Z38	X39	Y39	Z39	X40	Y40	Z40	X41	Y41	Z41	X42	Y42	Z42	X43	Y43	Z43	X44	Y44	Z44	X45	Y45	Z45	X46	Y46	Z46	X47	Y47	Z47	X48	Y48	Z48	X49	Y49	Z49	X50	Y50	Z50	X51	Y51	Z51	X52	Y52	Z52	X53	Y53	Z53	X54	Y54	Z54	X55	Y55	Z55	X56	Y56	Z56	X57	Y57	Z57	X58	Y58	Z58	X59	Y59	Z59	X60	Y60	Z60	X61	Y61	Z61	X62	Y62	Z62	X63	Y63	Z63	X64	Y64	Z64	X65	Y65	Z65	X66	Y66	Z66	X67	Y67	Z67	X68	Y68	Z68	X69	Y69	Z69	X70	Y70	Z70	X71	Y71	Z71	X72	Y72	Z72	

1	0.0	446.8050000000003	859.65103	-201.189	512.96551	834.7727100000002	-262.26766	375.62344999999914	449.01771	-349.57156	430.19215000000077	41.75197	-450.0201	357.04869999999937	-40.153220000000005	-293.5586400000001	391.5025800000003	858.29812	-124.23963	273.44600999999966	459.9210999999999	-72.69258000000002	213.3972300000005	52.84292	20.48131	236.82509000000027	-20.4392	195.46553	395.2477199999994	975.7155199999999	-266.8684900000001	335.2914899999996	1033.3565500000002	-317.01367	263.2548599999991	1082.54799	-368.18951000000004	186.5603599999995	1120.54706	-414.31527	103.45776000000023	1161.1956599999999	-459.5509400000001	45.20114999999987	1227.2450699999997	-422.26565	26.696649999999863	1319.6308199999999	-293.56948	140.8164200000001	1138.4415	-472.93687000000006	170.9467999999997	1060.4629200000002	-569.35602	94.56994000000032	816.67416	-497.0089099999999	53.1831600000005	562.23713	-462.7894299999999	34.663489999999	533.70409	-483.7610599999999	5.667100000000573	511.49112	-479.06526999999994	-12.848799999999756	495.44856	-471.69656999999995	-26.849920000000566	481.584	-462.0473900000001	40.31466000000091	527.6553900000001	-472.53521999999987	21.072990000000573	478.63356	-465.54767000000004	0.5353699999996024	451.86489	-452.44694999999996	-16.029159999999138	443.52593999999993	-443.66119000000003	-32.30033999999978	442.22449	-435.9568100000001	45.206350000000384	528.1511200000001	-461.2394499999999	29.08654999999999	480.60274000000004	-448.31645999999995	7.374859999999899	451.62639	-432.54289000000006	-12.274250000000393	441.67787000000004	-421.23391000000004	-29.914819999999054	440.30837	-412.45912000000004	49.23305000000073	529.6642100000001	-453.49276000000003	38.51516999999967	488.1071200000001	-435.3487799999999	20.330080000000635	463.1659000000001	-420.10948999999994	1.769350000000486	453.73688000000004	-408.4092799999999	-14.6312999999991	452.52841999999987	-399.78353999999996	53.80357999999978	533.52231	-444.3297799999999	47.052159999999276	497.4734699999999	-422.2231499999999	33.6891399999995	478.1742599999999	-407.7726800000001	20.730829999999514	471.6221499999999	-398.15136000000007	6.536290000000918	470.73894999999993	-389.88469	122.06758999999965	1160.9098200000003	-416.02792000000005	109.60278000000017	1154.4016200000003	-288.61259000000007	130.40082000000075	901.75252	-365.08331999999996	207.86232999999993	655.8441599999999	-389.11569000000003	175.11131999999998	633.1006	-386.46551000000005	154.8816799999995	612.42668	-409.26043	144.7536200000004	596.5812900000001	-426.60534000000007	139.69787000000088	582.13287	-442.32304	185.8418699999993	624.6750600000001	-389.36513	168.86646999999903	576.63996	-404.42076999999995	159.5085399999998	549.3436	-426.26847	153.12999000000036	540.6459300000001	-443.72631000000007	147.47224000000006	539.0268900000001	-460.79004	197.3196200000002	622.69985	-393.3811600000001	186.96993999999995	574.77771	-410.23502	178.33117000000038	544.8948	-434.57048	171.39033000000018	534.35477	-455.87039000000004	165.5665799999997	532.56061	-474.65675	205.85942000000068	622.44886	-395.73145	203.99010999999882	579.0453599999998	-412.57517999999993	198.0842100000009	552.9764200000001	-434.26685999999995	192.25149000000056	542.7976	-455.06765	187.18431000000055	541.10489	-472.8525699999999	216.21288000000095	624.1915100000001	-398.81429	220.8676200000009	585.1681700000001	-415.82358000000005	218.6797000000006	564.4473099999999	-433.87088	215.65459999999985	557.09742	-449.37074000000007	211.87339000000065	555.6408800000002	-465.31388000000004
2	0.008	446.8050000000003	859.65103	-201.189	512.9567700000007	834.7429	-262.26498	375.5165199999992	449.00406000000004	-349.4856800000001	429.9431399999994	41.72292	-449.94886999999994	356.77880000000005	-40.160959999999996	-293.4860300000001	391.505439999999	858.3286699999999	-124.23705	273.37535000000025	459.97494	-72.67846000000003	213.23462999999902	52.89493999999999	20.428179999999998	236.6633099999999	-20.38338	195.41388	395.27396000000044	975.71408	-266.89162	335.32874999999876	1033.35208	-317.05344	263.3028400000003	1082.5412000000001	-368.2466199999999	186.61805000000004	1120.53845	-414.39003	103.52499999999964	1161.18532	-459.64479	45.26796999999988	1227.24248	-422.3739	26.7519599999996	1319.64018	-293.68796	140.88618999999926	1138.4301	-473.02188999999987	171.0281300000006	1060.4448499999999	-569.43203	94.61198999999942	816.6357099999999	-497.19516000000004	53.20484999999917	562.20719	-462.93699	34.68293999999878	533.67378	-483.90614	5.682229999999436	511.4664800000001	-479.2102	-12.837279999999737	495.4282699999999	-471.8410999999999	-26.841920000000755	481.56769	-462.19133	40.33171999999922	527.6260000000001	-472.67859000000016	21.080920000000333	478.60858	-465.68522	0.5371799999993527	451.84557000000007	-452.58256	-16.02983999999924	443.5108699999999	-443.79744000000005	-32.30218000000059	442.21346	-436.09484999999995	45.222099999999045	528.1227900000001	-461.38230000000004	29.09270000000106	480.5792799999999	-448.45336000000003	7.374179999999797	451.60924	-432.67762999999997	-12.277989999998681	441.66591999999997	-421.3694	-29.919879999999466	440.3008500000001	-412.59654000000006	49.24811000000045	529.6365000000001	-453.6353799999999	38.52098999999998	488.08424	-435.4857799999999	20.329820000000836	463.14863	-420.24456	1.766059999999925	453.72470000000004	-408.54505000000006	-14.635850000000573	452.52044	-399.92113000000006	53.81815999999981	533.49535	-444.47248	47.057950000000346	497.45133999999996	-422.36066000000005	33.68990000000031	478.15679	-407.90862000000004	20.729299999999057	471.6084799999999	-398.28778	6.533599999998842	470.72905	-390.0227199999999	122.12598999999955	1160.9016700000002	-416.11797	109.59388000000035	1154.3802499999997	-288.70992	130.4147899999998	901.6227200000001	-364.81525999999997	207.92207000000053	655.7305000000001	-388.86517000000003	175.16616000000067	632.9912200000001	-386.23894999999993	154.95091999999931	612.3193699999999	-409.04850999999996	144.83381000000008	596.4748600000001	-426.4006200000001	139.78795000000082	582.0267200000001	-442.12176000000005	185.89779	624.5642400000002	-389.13034000000005	168.92747000000054	576.5309499999998	-404.19753	159.58237999999983	549.23528	-426.05158	153.2157700000007	540.538	-443.51397	147.57058999999936	538.9192899999998	-460.5819	197.37828999999874	622.58745	-393.13773999999995	187.0350499999995	574.66623	-409.99817999999993	178.4106499999998	544.78385	-434.33938	171.48438999999962	534.2441999999999	-455.64423	165.67446999999993	532.4503399999999	-474.43489999999986	205.91980999999942	622.3353	-395.48163	204.05751000000055	578.9316299999999	-412.32571	198.1644899999992	552.8629299999999	-434.02117	192.3460300000006	542.6843600000001	-454.82608	187.29193999999916	540.99188	-472.6147500000001	216.27579999999944	624.0765499999999	-398.55675999999994	220.9382399999995	585.0521899999999	-415.5616200000001	218.76116000000002	564.3311800000001	-433.6100499999999	215.74670999999944	556.9813100000001	-449.112	211.9772499999999	555.5248699999997	-465.05793000000006
3	0.017	446.8050000000003	859.65103	-201.189	512.9494899999991	834.7172299999999	-262.26239	375.45578000000023	448.99347000000006	-349.46555000000006	429.76160999999956	41.72184999999999	-450.0326400000001	356.58704000000034	-40.15196	-293.56932000000006	391.50827000000027	858.35558	-124.23455000000001	273.3065800000004	460.02591000000007	-72.65414	212.99795999999878	52.94745	20.35055	236.3783800000001	-20.33157	195.34241	395.29379999999946	975.7102299999998	-266.9139799999999	335.35683999999856	1033.3346500000002	-317.10126999999994	263.3417700000009	1082.5075900000002	-368.32521	186.66904999999952	1120.4866500000003	-414.50364	103.58672000000024	1161.11305	-459.79643000000004	45.32173999999941	1227.17223	-422.54153999999994	26.77758999999969	1319.5687899999998	-293.85883	140.96268999999938	1138.3724999999997	-473.1571599999999	171.14436999999998	1060.4059899999997	-569.57002	94.7524599999997	816.5550700000001	-497.44867	53.35920000000078	562.12365	-463.1952900000001	34.84901000000082	533.5844299999999	-484.1668799999999	5.845580000001064	511.37853000000007	-479.48105	-12.67812000000049	495.3424400000001	-472.11788	-26.68822999999975	481.4846	-462.47212	40.491439999999784	527.5397699999999	-472.93445999999994	21.236550000000534	478.5243699999999	-465.93822	0.6853599999994913	451.76507999999995	-452.83963000000006	-15.886619999999311	443.43289	-444.06151000000006	-32.16329999999925	442.13768000000005	-436.36770999999993	45.37546999999995	528.0397	-461.63555999999994	29.238640000000487	480.49987	-448.70240999999993	7.511160000000018	451.53430000000003	-432.93079	-12.147409999999581	441.5942	-421.6308399999999	-29.794230000000425	440.23164	-412.86753	49.39712000000054	529.55557	-453.88679	38.65965999999935	488.00842	-435.73161999999996	20.45984000000044	463.07712999999995	-420.4936600000001	1.8894700000009834	453.65651999999994	-408.80197	-14.517290000000685	452.45471999999995	-400.18694	53.962030000000595	533.41697	-444.72239999999994	47.189259999999194	497.37915999999996	-422.60431000000005	33.8130199999996	478.08869999999996	-408.15439999999995	20.846980000000258	471.54311000000007	-398.53902999999997	6.646639999999934	470.66603999999995	-390.28171000000003	122.16442000000006	1160.82858	-416.25968	109.62370999999985	1154.3136699999995	-288.85215	130.45522999999957	901.5595199999999	-364.96579	208.03859999999986	655.6842199999999	-388.94326	175.27995999999985	632.94606	-386.34160999999995	155.08044999999947	612.2758300000002	-409.16657	144.97529999999915	596.43237	-426.52661	139.9402800000007	581.98502	-442.25194999999997	186.013359999999	624.5187899999999	-389.22556	169.05216000000019	576.4867200000001	-404.30686999999995	159.72185999999874	549.19223	-426.16872	153.36757000000034	540.4958599999998	-443.63604999999995	147.73466000000008	538.87801	-460.70811000000003	197.4966800000002	622.5417199999999	-393.22473	187.16385999999966	574.6215399999999	-410.09448999999995	178.5559599999997	544.7404199999999	-434.44307999999995	171.64470999999958	534.2018499999999	-455.75334000000004	165.84831999999915	532.4089300000002	-474.54828	206.03989	622.2893499999998	-395.56245000000007	204.18816000000152	578.8863999999999	-412.40954999999997	198.30986999999914	552.8187600000001	-434.1102700000001	192.50607000000127	542.6412000000003	-454.91977	187.46479	540.9496000000001	-472.71216000000004	216.39815999999882	624.0303300000002	-398.63002000000006	221.07145000000128	585.0064600000001	-415.63302	218.906649999999	564.2862199999997	-433.6838100000001	215.90314000000035	556.9370599999999	-449.18823	212.14516000000003	555.48138	-465.13693
4	0.025	446.8050000000003	859.65103	-201.189	512.9453300000005	834.6860099999999	-262.25413	375.3722199999993	448.97467999999986	-349.387	429.6244599999991	41.71247999999999	-450.02117999999996	356.45894000000044	-40.16333	-293.55467999999996	391.5045600000012	858.38727	-124.23668999999998	273.2098700000006	460.08903	-72.62677000000001	212.83878000000004	53.01563	20.359550000000006	236.21383999999853	-20.26187	195.35276	395.32840000000033	975.71015	-266.94121	335.40237999999954	1033.3320500000002	-317.1444599999999	263.4003699999994	1082.50549	-368.38627	186.73965000000044	1120.4849499999998	-414.5843	103.66902000000027	1161.11159	-459.89835000000005	45.406810000000405	1227.17918	-422.65407	26.856160000000273	1319.57994	-293.97531	141.04913000000033	1138.3723199999997	-473.2497000000001	171.2463600000001	1060.40937	-569.66056	94.88311999999951	816.5174100000002	-497.6476799999999	53.47476000000097	562.0898899999999	-463.38356	34.97490999999991	533.54848	-484.3612800000001	5.957830000001195	511.35623999999996	-479.69535	-12.579859999999826	495.33087	-472.3440499999999	-26.605439999999362	481.48299000000003	-462.70646999999997	40.603329999999914	527.5066999999999	-473.12029000000007	21.321719999999914	478.50214000000005	-466.1216500000001	0.7463499999994383	451.75699	-453.03215	-15.838020000000142	443.43539	-444.26738	-32.1231600000001	442.15014999999994	-436.58983000000006	45.475860000000466	528.0098399999999	-461.8165700000001	29.306759999999485	480.48231	-448.87846999999994	7.5514600000005885	451.53256	-433.11616000000004	-12.122729999999137	441.60543000000007	-421.83202000000006	-29.77914999999939	440.25388	-413.08635000000004	49.490099999999984	529.52763	-454.0643399999999	38.71733999999924	487.99303	-435.90137000000004	20.491860000000088	463.07591	-420.6709	1.9056699999991906	453.6680200000001	-408.99413	-14.510470000001078	452.47666	-400.39553000000006	54.04707000000053	533.3914000000001	-444.8969900000001	47.23710000000028	497.36635999999993	-422.76952000000006	33.83824999999979	478.08780000000013	-408.32466999999997	20.859669999999824	471.55175	-398.71974	6.650450000000092	470.68408000000005	-390.47671	122.23470999999972	1160.82568	-416.35648000000003	109.66544000000067	1154.30957	-288.95183000000003	130.48671000000013	901.5714800000001	-365.12158999999997	208.14704999999958	655.71862	-389.07995999999997	175.3859599999987	632.9816799999999	-386.49841999999995	155.19923999999992	612.31286	-409.33597	145.1038099999996	596.47026	-426.7024399999999	140.07758999999987	582.0235300000002	-442.43117000000007	186.1207599999998	624.5540599999999	-389.3762100000001	169.1666499999992	576.52306	-404.46890000000013	159.84830000000056	549.22953	-426.33704	153.50406999999905	540.53388	-443.80838000000006	147.88127000000077	538.9167100000001	-460.88384	197.60637999999926	622.57665	-393.36859	187.28172000000086	574.6573300000001	-410.24579000000006	178.68714	544.77719	-434.6003	171.78817999999956	534.23947	-455.91495000000003	166.00291000000016	532.4472799999999	-474.7133899999999	206.15096000000085	622.3240000000001	-395.70123	204.30757000000085	578.9215800000002	-412.55059	198.44117000000006	552.8547499999999	-434.2555100000001	192.649370000001	542.6779799999999	-455.06873999999993	187.6186200000002	540.9870500000001	-472.86417	216.51112999999896	624.06466	-398.76259000000005	221.19301000000087	585.04106	-415.76384	219.03815000000031	564.32139	-433.81648	216.0435899999993	556.9727599999999	-449.32287	212.29503999999906	555.51766	-465.2738499999999
